<svg height="100%" viewBox="0 0 402 251" width="100%" xmlns="http://www.w3.org/2000/svg"
     xmlns:xlink="http://www.w3.org/1999/xlink"
     preserveAspectRatio="xMidYMid meet">
  <defs>
    <rect height="218" id="fac-a" rx="4" width="367"></rect>
    <mask fill="#fff" height="218" id="fac-d" width="367" x="0"
          y="0">
      <use xlink:href="#fac-a"></use>
    </mask>
    <rect height="180" id="fac-b" rx="4" width="345"></rect>
    <mask fill="#fff" height="180" id="fac-e" width="345" x="0"
          y="0">
      <use xlink:href="#fac-b"></use>
    </mask>
    <linearGradient id="fac-f" x1="0%" x2="0%" y1="31.325%"
                    y2="0%">
      <stop offset="0%" stop-color="#FFF" stop-opacity=".739"></stop>
      <stop offset="100%" stop-color="#FFF" stop-opacity="0"></stop>
    </linearGradient>
    <linearGradient id="fac-g" x1="14.641%" x2="77.092%" y1="0%"
                    y2="79.931%">
      <stop offset="0%" stop-color="#0CBFD6" class="docs-svg-primary-light-40-stop-color"></stop>
      <stop offset="100%" stop-color="#05BED5" class="docs-svg-primary-light-30-stop-color"
            stop-opacity=".152"></stop>
    </linearGradient>
    <g id="fac-c">
      <path fill="#FFEA00" stroke="#FFB300" stroke-width="0.2"
            transform="translate(-16 -5)" d="M6.76 4.84l-1.8-1.79-1.41 1.41 1.79 1.79 1.42-1.41zM4 10.5H1v2h3v-2zm9-9.95h-2V3.5h2V.55zm7.45 3.91l-1.41-1.41-1.79 1.79 1.41 1.41 1.79-1.79zm-3.21 13.7l1.79 1.8 1.41-1.41-1.8-1.79-1.4 1.4zM20 10.5v2h3v-2h-3zm-8-5c-3.31 0-6 2.69-6 6s2.69 6 6 6 6-2.69 6-6-2.69-6-6-6zm-1 16.95h2V19.5h-2v2.95zm-7.45-3.91l1.41 1.41 1.79-1.8-1.41-1.41-1.79 1.8z" />
      <path fill="#006064" stroke="white" stroke-width="0.2"
            transform="translate(16 5)" d="M9 2c-1.05 0-2.05.16-3 .46 4.06 1.27 7 5.06 7 9.54 0 4.48-2.94 8.27-7 9.54.95.3 1.95.46 3 .46 5.52 0 10-4.48 10-10S14.52 2 9 2z" />
    </g>
    <mask fill="#fff" height="116.116" id="fac-h" width="117.428"
          x="0" y="0">
      <use xlink:href="#fac-c"></use>
    </mask>
    <mask fill="#fff" height="116.116" id="fac-i" width="117.428"
          x="0" y="0">
      <use xlink:href="#fac-c"></use>
    </mask>
  </defs>
  <g transform="translate(16 19)" fill="none" fill-rule="evenodd">
    <use xlink:href="#fac-a" mask="url(#fac-d)" fill="#FFF"
         stroke="#00BCD4" class="docs-svg-primary-light-20-stroke"
         stroke-width="2.2"></use>
    <path d="M338 18h14v-2h-14v2zm0-4h14v-2h-14v2zm0-6v2h14V8h-14z"
          fill="#89E0EB" class="docs-svg-primary-fill"></path>
      <g transform="translate(12 9)" fill="#89E0EB" class="docs-svg-primary-fill">
        <ellipse cx="2.471" cy="2.5" rx="2.471" ry="2.5"></ellipse>
        <ellipse cx="10.294" cy="2.5" rx="2.471" ry="2.5"></ellipse>
        <ellipse cx="18.529" cy="2.5" rx="2.471" ry="2.5"></ellipse>
      </g>
      <use xlink:href="#fac-b" mask="url(#fac-e)" fill="#e9f7fb"
           class="docs-svg-primary-light-60-fill" stroke="#00BCD4"
           stroke-width="2.2" stroke-opacity=".449"
           transform="translate(10 25)"></use>
      <g transform="translate(123 56) scale(5)">
        <use xlink:href="#fac-c"></use>
      </g>
    </g>
</svg>