<svg xmlns:svg="http://www.w3.org/2000/svg" xmlns="http://www.w3.org/2000/svg"
   width="512" height="512" viewBox="0 0 120 120">
  <g>
    <path fill="#76ff03" stroke="#234e1c" stroke-width="0.5px" style="filter:drop-shadow(0px 0px 1px rgba(0,0,0,0.8))"
      d="m 61,15 c 3.879034,-0.705006 9.559364,-0.701612 11.052744,0.660551 1.19642,1.091308 0.68967,6.308131 -0.94759,11.210369 0.33919,1.85734 -0.0537,3.41136 -1.60688,4.38993 -3.86764,3.23233 -7.860854,3.60784 -11.999054,0.68493 -1.17593,1.79187 -2.07648,3.85052 -1.11619,7.71186 2.1028,0.8914 5.58963,1.43803 8.980264,2.08017 1.55143,-1.98682 3.21946,-3.46833 5.17506,-3.70372 -0.21638,-1.90369 1.33825,-3.15776 3.03352,-2.02931 1.26974,1.3399 0.34187,3.49346 -1.91733,2.99329 -1.69046,1.22244 -1.9023,2.19243 -1.644,3.08215 0.785,0.78189 4.49247,0.29733 6.46392,0.57084 1.50191,-1.00304 3.2006,-0.18426 2.93745,1.47803 -0.48914,2.03453 -2.32286,1.82261 -3.08966,0.65288 -2.47703,-0.35244 -5.47633,-1.14553 -6.52643,-0.294 -0.42334,0.85839 0.15271,1.94521 1.4021,3.18595 2.3565,-0.5074 3.3929,1.5553 2.14437,3.01993 -1.14773,0.9965 -3.29642,0.42292 -3.05762,-1.75154 -2.26398,-1.41871 -4.65941,-2.75407 -5.02285,-5.378 -1.76898,1.08889 -3.952834,1.53952 -6.341994,1.67428 2.55523,5.15062 6.216104,9.29686 9.358844,14.53733 2.73053,5.22554 3.98363,10.69731 4.69501,16.25937 2.11323,0.18884 4.12728,0.74132 6.03757,1.67429 1.44118,-1.35096 2.5715,-2.87148 5.42874,-3.45005 0.0499,-2.22496 2.29899,-2.58202 3.171,-1.54744 1.31023,1.90301 -0.45582,3.28044 -2.25775,2.71437 -1.09863,0.76042 -1.90285,1.6448 -1.72502,2.94268 0.1273,1.01499 4.05438,0.44679 6.18978,1.16693 1.35664,-0.87432 3.17713,-0.31236 2.82853,1.63623 -0.50507,2.27446 -2.32285,1.62382 -3.08221,0.59615 -2.2055,-0.46116 -4.55934,-1.62796 -6.35467,-1.04009 -0.34277,1.37451 0.10294,2.50642 1.07813,3.47541 2.77447,-0.83282 2.65966,2.08278 1.76308,2.87926 -1.37314,1.14443 -3.40635,0.33446 -2.98074,-1.71233 -1.72677,-1.49523 -3.66795,-2.80956 -4.36329,-5.17507 l -5.02285,1.92797 c 0.28768,3.24332 -0.20599,6.18612 -1.16006,8.95184 -0.71381,2.91965 -2.40755,5.32601 -4.10187,7.73206 -1.77652,2.35062 -4.16402,3.88658 -6.649054,5.29252 -2.75173,1.38514 -5.6443,1.81953 -8.58633,1.92019 -1.90867,0.0793 -3.75232,-0.0455 -5.70917,-0.56178 -1.77962,-0.44495 -3.28359,-1.07365 -4.7764,-1.70981 -3.21463,-1.60172 -5.32818,-4.06518 -7.47201,-6.50492 -1.68247,-2.99082 -3.16976,-6.02848 -3.66918,-9.30323 -0.20808,-1.73882 -0.31003,-3.52313 -0.18431,-5.405 0.26028,-1.77775 0.48606,-3.16448 1.64535,-5.29738 1.66249,-2.35388 4.02489,-3.94973 6.41163,-5.2072 2.52955,-0.92878 5.2678,-2.13039 8.85808,-0.89161 2.82728,1.23998 2.81201,2.61615 2.5098,4.23315 -0.66607,2.6961 -2.66543,2.82916 -3.90504,2.8445 -3.09252,-0.49444 -4.91101,-0.83142 -6.57602,-0.32679 -1.34932,0.45669 -2.62693,1.41415 -3.41896,3.11727 -0.65602,1.60355 -0.50866,3.5698 -0.41086,5.00342 0.13858,1.8851 0.83811,3.2184 1.41881,4.71642 1.54824,3.23909 3.40813,5.30086 5.38478,6.92154 1.52368,1.4055 3.41143,2.17389 5.50814,2.57658 2.86982,0.14729 5.24411,0.0849 6.87142,-0.29347 3.01807,-0.28244 5.81701,-2.03615 8.501004,-4.5617 1.0339,-1.62677 1.99672,-3.32018 2.27733,-5.65316 0.22333,-2.09277 0.47065,-4.19492 -0.37747,-5.86842 -1.56395,0.28342 -3.15745,0.86241 -4.769174,1.62355 0.22254,2.58143 -0.24251,4.56121 -1.16693,6.13904 2.04137,1.75985 0.52212,3.26832 -0.87482,3.43229 -1.97716,-0.18633 -2.82165,-2.53822 -0.44431,-3.63523 0.10738,-1.53329 0.0457,-2.89129 -1.12173,-3.1025 -1.03994,-0.17719 -3.27534,2.89417 -5.06805,3.96501 0.16179,1.25184 -1.75352,2.43897 -3.03352,1.02096 -1.02099,-1.14512 -0.25572,-3.21059 1.91733,-2.74598 1.41518,-1.44921 3.50276,-2.3487 4.67149,-4.02819 -0.22706,-1.12801 -1.44346,-1.522 -3.14942,-1.55276 -1.43724,2.06023 -3.57926,0.88014 -3.62344,-0.53963 -0.0212,-2.01839 2.42961,-2.6835 3.44407,-1.14952 2.13345,-0.2664 4.02013,-1.20261 6.77504,0.21781 0.8771,-1.55771 1.9297,-3.10664 3.754464,-4.61697 -2.247754,-2.30269 -4.510544,-4.56326 -6.993104,-6.20847 -2.10382,-1.67419 -4.20763,-3.48267 -6.31146,-5.34744 -1.72513,-1.58757 -3.25144,-3.22937 -4.45113,-4.96025 -1.18005,-1.73146 -2.11789,-3.53746 -2.67679,-5.46005 -0.72589,-1.94968 -0.85866,-3.9735 -0.82493,-6.01814 0.0748,-2.03552 0.0327,-3.26383 0.74773,-6.10655 0.41993,-1.89202 1.03355,-3.78404 1.78813,-5.67605 -1.56165,-1.54027 -2.96699,-3.27591 -3.9574,-5.53022 -2.49247,0.22015 -4.77429,0.003 -6.64641,-1.06545 -1.4961,1.23927 -3.42564,0.58811 -3.42793,-1.2305 0.19711,-2.07871 2.65567,-2.23236 3.67546,-0.26186 1.43195,0.0816 2.75433,0.0719 3.05612,-0.78834 0.49777,-1.3675 -2.6123,-3.58642 -3.76027,-5.38043 -1.59652,-0.20872 -2.26409,-2.012148 -0.93743,-3.030434 1.29998,-1.027843 3.18481,0.01868 2.86539,1.81278 1.06808,1.147394 1.97746,3.587704 3.86547,5.021014 1.14604,-0.53782 1.21593,-2.02985 1.44387,-3.30215 -1.61665,-0.89412 -1.24152,-3.42553 0.83098,-3.47251 1.77344,0.203486 2.44086,2.01407 0.99243,3.37975 0.4487,2.95553 0.39951,5.45007 -0.44176,7.21118 1.22467,0.935 2.85078,1.60237 4.49756,2.25595 2.06241,-2.83507 3.97939,-5.9792 6.77197,-7.26266 -2.69481,-5.076693 0.50608,-9.426843 2.1309,-11.542424 1.37996,-1.10921 2.6852,-2.36411 5.37801,-0.913246 z"/>
    <path fill="#ffd600" stroke="#504302" stroke-width="0.5px"
      d="m 82,14 c 3.7766,0.179717 7.33113,-0.279056 11.60642,1.334362 1.52878,0.690518 2.94066,1.661614 4.13195,3.162118 1.43204,1.879798 1.79873,4.010265 2.10251,6.155532 l 0.0447,12.86917 -0.0121,11.30397 c 0.17259,2.32972 0.93757,4.39616 2.3278,6.18471 1.28147,1.50569 3.04195,2.42972 5.27049,2.78541 l 0.0448,3.38128 c -2.38964,0.20238 -3.94997,1.31305 -5.3458,2.60387 -2.11566,2.27423 -2.04195,4.43899 -2.33225,6.62195 l -5.3e-4,12.88514 -0.0595,10.2437 c -0.11926,1.62967 -0.35716,3.06951 -0.81396,4.1591 -0.48194,1.63429 -1.30347,2.6504 -2.13311,3.65175 -1.86649,1.54134 -3.62226,2.25229 -5.35483,2.78924 -3.18043,0.67848 -6.2998,0.74648 -9.41371,0.7598 l 0.0269,-3.07634 c 2.54409,-0.14309 4.6972,0.0534 7.9493,-1.11364 1.70632,-0.82113 2.45573,-1.26459 3.37851,-2.72579 0.85037,-1.45563 1.1197,-3.04038 1.37444,-4.62838 l 0.0183,-10.09135 -0.017,-13.00027 c 0.3954,-2.28291 0.8819,-4.52621 2.35927,-6.3387 1.57846,-1.61335 3.06409,-3.28155 5.65984,-4.29378 v -0.38052 c -2.11132,-1.19608 -4.30681,-2.308 -5.63487,-4.28735 -1.2237,-1.79812 -1.99272,-3.87604 -2.33703,-6.21533 l -0.0572,-11.36518 -0.0317,-12.2277 c -0.45651,-2.234722 -0.90306,-4.473026 -3.00928,-6.11385 -2.57437,-1.736101 -6.14194,-1.816852 -9.70642,-1.902767 z"/>
    <path fill="#ffd600" stroke="#504302" stroke-width="0.5px"
      d="m 38,14 c -3.77661,0.179718 -7.33113,-0.279056 -11.60642,1.334362 -1.52878,0.690518 -2.94066,1.661615 -4.13195,3.162115 -1.43204,1.879799 -1.79873,4.010266 -2.10252,6.155533 l -0.0447,12.86917 0.0121,11.30397 c -0.17259,2.32973 -0.93756,4.39617 -2.3278,6.18472 -1.28147,1.50569 -3.04194,2.42972 -5.27048,2.7854 l -0.0448,3.38128 c 2.38963,0.20238 3.94996,1.31305 5.3458,2.60387 2.11565,2.27423 2.04194,4.43899 2.33224,6.62195 l 5.3e-4,12.88514 0.0595,10.2437 c 0.11927,1.62967 0.35717,3.06951 0.81397,4.15911 0.48193,1.63428 1.30347,2.65039 2.13311,3.65174 1.86649,1.54134 3.62226,2.25229 5.35483,2.78924 3.18043,0.67849 6.2998,0.74649 9.41371,0.7598 l -0.0269,-3.07634 c -2.54409,-0.14309 -4.69721,0.0534 -7.94931,-1.11364 -1.70631,-0.82113 -2.45572,-1.26459 -3.3785,-2.72578 -0.85037,-1.45564 -1.11971,-3.04039 -1.37444,-4.62838 l -0.0183,-10.09136 0.017,-13.00027 c -0.39539,-2.28291 -0.8819,-4.52621 -2.35927,-6.33869 -1.57845,-1.61336 -3.06409,-3.28156 -5.65984,-4.29379 v -0.38052 c 2.11133,-1.19608 4.30681,-2.308 5.63487,-4.28735 1.22371,-1.79812 1.99273,-3.87604 2.33703,-6.21532 l 0.0572,-11.36519 0.0317,-12.2277 c 0.45651,-2.234722 0.90306,-4.473026 3.00928,-6.11385 2.57437,-1.736098 6.14194,-1.816849 9.70642,-1.902765 z"/>
  </g>
</svg>
